#define smartlu_width 128
#define smartlu_height 64
static unsigned char smartlu_bits[] = {
   0x00, 0x00, 0x00, 0x00, 0x00, 0x00, 0x00, 0x00, 0x00, 0x00, 0x00, 0x00,
   0x00, 0x00, 0x00, 0x00, 0x00, 0x00, 0x00, 0x00, 0x00, 0x00, 0x00, 0x00,
   0x00, 0x00, 0x00, 0x00, 0x00, 0x00, 0x00, 0x00, 0x00, 0x00, 0x00, 0x00,
   0x00, 0x00, 0x00, 0x00, 0x00, 0x00, 0x00, 0x00, 0x00, 0x00, 0x00, 0x00,
   0x00, 0x00, 0x00, 0x00, 0x00, 0x00, 0x00, 0x00, 0x00, 0x00, 0x00, 0x00,
   0x00, 0x00, 0x00, 0x00, 0x00, 0x00, 0x00, 0x00, 0x00, 0x00, 0x00, 0x00,
   0x00, 0x00, 0x00, 0x00, 0x00, 0x00, 0x00, 0x00, 0x00, 0x00, 0x00, 0x00,
   0x00, 0x00, 0x00, 0x00, 0x00, 0x00, 0x00, 0x00, 0x00, 0x00, 0x00, 0x00,
   0x00, 0x00, 0x00, 0x00, 0x00, 0x00, 0x00, 0x00, 0x00, 0x00, 0x00, 0x00,
   0x00, 0x00, 0x00, 0x00, 0x00, 0x00, 0x00, 0x00, 0x00, 0x00, 0x00, 0x00,
   0x00, 0x00, 0x00, 0x00, 0x00, 0x00, 0x00, 0x00, 0x00, 0x00, 0x00, 0x00,
   0x00, 0x00, 0x00, 0x00, 0x00, 0x00, 0x00, 0x00, 0x00, 0x00, 0x00, 0x00,
   0x00, 0x00, 0x00, 0x00, 0x00, 0x00, 0x00, 0x00, 0x00, 0x00, 0x00, 0x00,
   0x00, 0x00, 0x00, 0x00, 0x00, 0x00, 0x00, 0x00, 0x00, 0x00, 0x00, 0x00,
   0x00, 0x00, 0x00, 0x00, 0x00, 0x00, 0x00, 0x00, 0x00, 0x00, 0x00, 0x00,
   0x00, 0x00, 0x00, 0x00, 0x00, 0x00, 0x00, 0x00, 0x00, 0x00, 0x00, 0x00,
   0x00, 0x00, 0x00, 0x00, 0x00, 0x00, 0x00, 0x00, 0x00, 0x00, 0x00, 0x00,
   0x00, 0x00, 0x00, 0x00, 0x00, 0x00, 0x00, 0x00, 0x00, 0x00, 0x00, 0x00,
   0x00, 0x00, 0x00, 0x00, 0x00, 0x00, 0x00, 0x00, 0x00, 0x00, 0x00, 0x00,
   0x00, 0x00, 0x00, 0x00, 0x00, 0x00, 0x00, 0x00, 0x00, 0x00, 0x00, 0x00,
   0x00, 0x00, 0x00, 0x00, 0x00, 0x00, 0x00, 0x00, 0x00, 0x00, 0x00, 0x00,
   0x00, 0x00, 0x00, 0x00, 0x00, 0x00, 0x00, 0x00, 0x00, 0x00, 0x00, 0x00,
   0x00, 0x00, 0x00, 0x00, 0x00, 0x00, 0x00, 0x00, 0x00, 0x00, 0x00, 0x00,
   0x00, 0x00, 0x00, 0x00, 0x00, 0x00, 0x00, 0x00, 0x00, 0x00, 0x00, 0x00,
   0x00, 0x00, 0x00, 0x00, 0x00, 0x00, 0x00, 0x00, 0x00, 0x00, 0x00, 0x00,
   0x00, 0x00, 0x00, 0x00, 0x00, 0x00, 0x3e, 0x00, 0x00, 0x00, 0x00, 0x00,
   0x00, 0x00, 0x00, 0x00, 0xf8, 0x00, 0x00, 0x00, 0x00, 0x80, 0x7f, 0x00,
   0x00, 0x00, 0x00, 0x00, 0x00, 0x00, 0x08, 0x00, 0x7e, 0x00, 0x00, 0x00,
   0x00, 0xc0, 0x7d, 0x00, 0x00, 0x00, 0x00, 0x00, 0x00, 0x00, 0x06, 0x00,
   0x7f, 0x00, 0x00, 0x00, 0x00, 0xe0, 0x70, 0x00, 0x00, 0x00, 0x00, 0x00,
   0x00, 0x00, 0x07, 0x80, 0x03, 0x00, 0x00, 0x00, 0x00, 0x70, 0x30, 0x00,
   0x00, 0x00, 0x00, 0x00, 0x00, 0x80, 0x07, 0xc0, 0x01, 0x00, 0x00, 0x00,
   0x00, 0x30, 0x10, 0x00, 0x00, 0x00, 0x00, 0x00, 0x00, 0x80, 0x07, 0xe0,
   0x01, 0x00, 0x00, 0x04, 0x00, 0x78, 0x00, 0x70, 0x38, 0x1c, 0xe0, 0x3f,
   0xb8, 0x87, 0x03, 0xe0, 0x01, 0x00, 0x07, 0x07, 0x00, 0x78, 0x00, 0x7c,
   0x3e, 0x1f, 0xf0, 0x1f, 0xfe, 0xc7, 0x07, 0xe0, 0x00, 0xc0, 0x83, 0x03,
   0x00, 0x78, 0x00, 0xbf, 0xbf, 0x1f, 0x5c, 0x9f, 0xff, 0xff, 0x7f, 0xf0,
   0x00, 0xf0, 0xc3, 0x03, 0x00, 0xf8, 0x81, 0xff, 0xff, 0x1f, 0x1e, 0xce,
   0x7d, 0xff, 0x1f, 0xf0, 0x00, 0xf0, 0xc3, 0x03, 0x00, 0xf0, 0x83, 0xfc,
   0x7c, 0x0e, 0x0e, 0x4f, 0x1c, 0xc2, 0x01, 0xf0, 0x00, 0xc8, 0xc3, 0x01,
   0x00, 0xe0, 0x07, 0x3c, 0x1e, 0x0f, 0x07, 0x0f, 0x1e, 0xc0, 0x01, 0x70,
   0x00, 0xc0, 0xc3, 0x01, 0x00, 0xc0, 0x0f, 0x3c, 0x0e, 0x0f, 0x07, 0x07,
   0x1e, 0xe0, 0x01, 0x78, 0x00, 0xc0, 0xe1, 0x01, 0x00, 0x80, 0x1f, 0x1c,
   0x0e, 0x87, 0x87, 0x07, 0x0e, 0xe0, 0x01, 0x78, 0x00, 0xc4, 0xe1, 0x00,
   0x00, 0x00, 0x1f, 0x1e, 0x0e, 0x87, 0x87, 0x07, 0x0e, 0xe0, 0x00, 0x78,
   0x00, 0xec, 0xe1, 0x00, 0x00, 0x00, 0x1e, 0x1e, 0x8f, 0xc7, 0x83, 0x47,
   0x0f, 0xe0, 0x20, 0x38, 0x00, 0xe6, 0xe0, 0x00, 0x00, 0x00, 0x1e, 0x0e,
   0x87, 0xc7, 0xc3, 0x33, 0x07, 0xe0, 0x30, 0x3c, 0x00, 0xe6, 0xf8, 0x0c,
   0x60, 0x00, 0x0e, 0x0e, 0x87, 0xf7, 0xf7, 0xbf, 0x07, 0xf0, 0x1d, 0x1c,
   0x00, 0xf3, 0xfe, 0x0e, 0x60, 0x00, 0x0e, 0x8f, 0x87, 0xdf, 0xff, 0x9f,
   0x07, 0xf0, 0x8f, 0x1e, 0xc0, 0xe3, 0xff, 0x07, 0x70, 0x00, 0x07, 0x87,
   0x87, 0x8f, 0xdf, 0x87, 0x07, 0xf0, 0xe3, 0xff, 0xff, 0xf3, 0xf3, 0x01,
   0xf0, 0x80, 0x03, 0x87, 0x83, 0x87, 0xc7, 0x83, 0x03, 0xe0, 0xe3, 0xff,
   0xff, 0xe1, 0xf1, 0x00, 0xf8, 0xd3, 0x01, 0x41, 0x00, 0x01, 0x81, 0x40,
   0x00, 0x40, 0x00, 0x80, 0x7a, 0x20, 0x10, 0x00, 0xf0, 0xff, 0x00, 0x00,
   0x00, 0x00, 0x00, 0x00, 0x00, 0x00, 0x00, 0x00, 0x00, 0x00, 0x00, 0x00,
   0xe0, 0x3f, 0x00, 0x00, 0x00, 0x00, 0x00, 0x00, 0x00, 0x00, 0x00, 0x00,
   0x00, 0x00, 0x00, 0x00, 0x00, 0x02, 0x00, 0x00, 0x00, 0x00, 0x00, 0x00,
   0x00, 0x00, 0x00, 0x00, 0x00, 0x00, 0x00, 0x00, 0x00, 0x00, 0x00, 0x00,
   0x00, 0x00, 0x00, 0x00, 0x00, 0x00, 0x00, 0x00, 0x00, 0x00, 0x00, 0x00,
   0x00, 0x00, 0x00, 0x00, 0x00, 0x00, 0x00, 0x00, 0x00, 0x00, 0x00, 0x00,
   0x00, 0x00, 0x00, 0x00, 0x00, 0x00, 0x00, 0x00, 0x00, 0x00, 0x00, 0x00,
   0x00, 0x00, 0x00, 0x00, 0x00, 0x00, 0x00, 0x00, 0x00, 0x00, 0x00, 0x00,
   0x00, 0x00, 0x00, 0x00, 0x00, 0x00, 0x00, 0x00, 0x00, 0x00, 0x00, 0x00,
   0x00, 0x00, 0x00, 0x00, 0x00, 0x00, 0x00, 0x00, 0x00, 0x00, 0x00, 0x00,
   0x00, 0x00, 0x00, 0x00, 0x00, 0x00, 0x00, 0x00, 0x00, 0x00, 0x00, 0x00,
   0x00, 0x00, 0x00, 0x00, 0x00, 0x00, 0x00, 0x00, 0x00, 0x00, 0x00, 0x00,
   0x00, 0x00, 0x00, 0x00, 0x00, 0x00, 0x00, 0x00, 0x00, 0x00, 0x00, 0x00,
   0x00, 0x00, 0x00, 0x00, 0x00, 0x00, 0x00, 0x00, 0x00, 0x00, 0x00, 0x00,
   0x00, 0x00, 0x00, 0x00, 0x00, 0x00, 0x00, 0x00, 0x00, 0x00, 0x00, 0x00,
   0x00, 0x00, 0x00, 0x00, 0x00, 0x00, 0x00, 0x00, 0x00, 0x00, 0x00, 0x00,
   0x00, 0x00, 0x00, 0x00, 0x00, 0x00, 0x00, 0x00, 0x00, 0x00, 0x00, 0x00,
   0x00, 0x00, 0x00, 0x00, 0x00, 0x00, 0x00, 0x00, 0x00, 0x00, 0x00, 0x00,
   0x00, 0x00, 0x00, 0x00, 0x00, 0x00, 0x00, 0x00, 0x00, 0x00, 0x00, 0x00,
   0x00, 0x00, 0x00, 0x00, 0x00, 0x00, 0x00, 0x00, 0x00, 0x00, 0x00, 0x00,
   0x00, 0x00, 0x00, 0x00, 0x00, 0x00, 0x00, 0x00, 0x00, 0x00, 0x00, 0x00,
   0x00, 0x00, 0x00, 0x00, 0x00, 0x00, 0x00, 0x00, 0x00, 0x00, 0x00, 0x00,
   0x00, 0x00, 0x00, 0x00, 0x00, 0x00, 0x00, 0x00, 0x00, 0x00, 0x00, 0x00,
   0x00, 0x00, 0x00, 0x00, 0x00, 0x00, 0x00, 0x00, 0x00, 0x00, 0x00, 0x00,
   0x00, 0x00, 0x00, 0x00, 0x00, 0x00, 0x00, 0x00, 0x00, 0x00, 0x00, 0x00,
   0x00, 0x00, 0x00, 0x00, 0x00, 0x00, 0x00, 0x00, 0x00, 0x00, 0x00, 0x00,
   0x00, 0x00, 0x00, 0x00, 0x00, 0x00, 0x00, 0x00, 0x00, 0x00, 0x00, 0x00,
   0x00, 0x00, 0x00, 0x00, 0x00, 0x00, 0x00, 0x00, 0x00, 0x00, 0x00, 0x00,
   0x00, 0x00, 0x00, 0x00, 0x00, 0x00, 0x00, 0x00, 0x00, 0x00, 0x00, 0x00,
   0x00, 0x00, 0x00, 0x00, 0x00, 0x00, 0x00, 0x00, 0x00, 0x00, 0x00, 0x00,
   0x00, 0x00, 0x00, 0x00 };
